<svg version="1.1" id="Layer_1" xmlns="http://www.w3.org/2000/svg" xmlns:xlink="http://www.w3.org/1999/xlink" x="0px" y="0px"
	 width="100%" viewBox="0 0 382 380" enable-background="new 0 0 382 380" xml:space="preserve">
<path fill="#FFFEFE" opacity="1.000000" stroke="none" 
	d="
M1.000001,203.000000 
	C1.000000,135.691757 1.000000,68.383507 1.000000,1.037632 
	C128.260788,1.037632 255.521606,1.037632 382.891205,1.037632 
	C382.891205,127.546860 382.891205,254.093857 382.891205,381.000000 
	C313.312836,381.000000 243.625076,381.000000 173.633026,380.633514 
	C175.094818,380.026154 176.860916,379.785248 178.700745,379.534302 
	C180.194092,372.249420 181.731232,365.269012 183.011490,358.241791 
	C183.500488,355.557678 184.661743,354.484863 187.410477,353.862854 
	C194.857910,352.177826 202.242340,350.147705 209.534088,347.876678 
	C212.150375,347.061859 213.652496,347.239868 215.464111,349.416046 
	C220.211411,355.118713 225.259109,360.571320 230.369614,366.329224 
	C239.648361,360.938629 248.390610,355.859680 257.301086,350.683044 
	C254.847870,343.326660 252.677307,336.543732 250.302567,329.833038 
	C249.365417,327.184784 249.654327,325.520782 251.945465,323.453827 
	C257.618683,318.335693 263.009918,312.873871 268.173340,307.237610 
	C270.114166,305.119080 271.582275,304.848389 274.134247,305.791901 
	C279.901184,307.924103 285.768433,309.809082 291.673004,311.525940 
	C292.945679,311.895996 295.350128,311.639771 295.874451,310.811646 
	C301.071472,302.603760 305.982513,294.214783 310.938538,285.937073 
	C304.670410,280.365753 299.196533,275.746887 294.076416,270.764526 
	C292.895813,269.615662 292.159698,267.044678 292.531250,265.430115 
	C294.318787,257.662628 296.428284,249.959854 298.745148,242.331787 
	C299.187531,240.875366 300.892517,239.132217 302.332031,238.765335 
	C308.451752,237.205566 314.735107,236.287231 320.852783,234.720795 
	C322.261810,234.360016 324.229919,232.398163 324.276367,231.112991 
	C324.582397,222.643845 324.582245,214.152786 324.270172,205.684036 
	C324.223816,204.426590 322.192749,202.530258 320.761566,202.160080 
	C314.808929,200.620392 308.766266,199.348068 302.690704,198.399918 
	C299.836761,197.954544 298.977234,196.647141 298.363586,194.042862 
	C296.611725,186.608063 294.684662,179.200058 292.417267,171.908768 
	C291.578705,169.212296 291.997375,167.697830 294.080353,165.948273 
	C298.796051,161.987442 303.225250,157.685791 307.935944,153.718643 
	C309.933990,152.035980 310.389648,150.613190 309.022644,148.279602 
	C305.662262,142.543304 302.668152,136.589706 299.234558,130.899811 
	C295.151489,124.133606 295.020569,124.217659 287.318024,126.783417 
	C284.635834,127.676865 281.939636,128.528244 279.258881,129.425964 
	C270.281342,132.432388 270.282928,132.437088 264.821411,124.893524 
	C273.207825,122.493172 281.357574,120.644196 289.136353,117.785660 
	C293.969666,116.009537 298.785675,113.326752 302.646393,109.949890 
	C309.771301,103.717979 316.194000,96.682343 322.897858,89.970184 
	C330.869568,81.988586 338.829224,73.994987 346.386078,66.415810 
	C336.416534,56.467548 326.696686,46.768440 316.869232,36.961975 
	C316.855316,36.971020 316.379639,37.176994 316.038635,37.517780 
	C301.088654,52.459023 286.103455,67.365753 271.268738,82.420738 
	C269.344513,84.373535 267.592224,86.913734 266.810089,89.499397 
	C263.877106,99.195534 261.379639,109.023415 258.379700,118.676643 
	C256.514099,117.267212 255.110352,115.787262 253.436325,114.738922 
	C249.751450,112.431305 249.062057,109.791946 250.779114,105.631096 
	C253.298279,99.526566 255.033966,93.098717 257.318176,86.156090 
	C248.276459,80.955780 239.410553,75.856590 230.373398,70.658905 
	C225.260696,76.388535 220.470901,81.469849 216.040009,86.846916 
	C213.935822,89.400444 212.156509,89.930481 208.914078,88.848373 
	C202.144333,86.589073 195.211258,84.700180 188.219482,83.277290 
	C184.901718,82.602104 183.427307,81.495461 182.866669,78.095116 
	C181.713669,71.101685 180.054520,64.191689 178.589722,57.180656 
	C167.812332,57.180656 157.585129,57.180656 147.370346,57.180656 
	C145.846649,64.508064 144.225998,71.149307 143.162766,77.878624 
	C142.591873,81.491837 140.978302,82.638283 137.487946,83.328926 
	C130.653473,84.681252 123.852524,86.478951 117.285271,88.794464 
	C113.766151,90.035255 111.933838,89.194336 109.773964,86.616653 
	C105.305664,81.284012 100.561073,76.182869 95.572495,70.585251 
	C86.383598,75.919373 77.533638,81.056740 68.666039,86.204346 
	C71.194801,93.795761 73.377022,100.597610 75.748055,107.333000 
	C76.614243,109.793571 76.440292,111.361725 74.290253,113.330704 
	C68.529495,118.606377 63.278599,124.436913 57.557381,129.759186 
	C56.357250,130.875626 53.803017,131.509537 52.226963,131.076538 
	C46.138683,129.403931 40.235645,127.062897 34.161739,125.327393 
	C32.877728,124.960510 30.403032,125.615929 29.768681,126.618019 
	C24.722713,134.589218 19.988520,142.757767 15.099934,150.964355 
	C21.193962,156.425385 26.768587,161.174179 31.986628,166.286911 
	C33.153267,167.430008 33.809086,170.019485 33.434361,171.652634 
	C31.688612,179.261032 29.368347,186.736145 27.543200,194.328568 
	C26.956755,196.768112 26.066639,197.879364 23.490063,198.343842 
	C15.958356,199.701645 8.491981,201.421844 1.000001,203.000000 
M363.383118,26.171175 
	C360.900787,23.712358 358.515045,21.145767 355.916351,18.816780 
	C350.194641,13.688856 341.950012,13.007252 336.234985,17.702864 
	C332.193207,21.023718 328.813263,25.150103 325.651764,28.390188 
	C335.472076,38.255772 345.165497,47.993851 355.421692,58.297337 
	C357.813416,55.678066 360.450165,52.685730 363.199219,49.800396 
	C370.249084,42.400997 370.503113,34.668274 363.383118,26.171175 
z"/>
<path fill="#910839" opacity="1.000000" stroke="none" 
	d="
M1.000001,203.468658 
	C8.491981,201.421844 15.958356,199.701645 23.490063,198.343842 
	C26.066639,197.879364 26.956755,196.768112 27.543200,194.328568 
	C29.368347,186.736145 31.688612,179.261032 33.434361,171.652634 
	C33.809086,170.019485 33.153267,167.430008 31.986628,166.286911 
	C26.768587,161.174179 21.193962,156.425385 15.099934,150.964355 
	C19.988520,142.757767 24.722713,134.589218 29.768681,126.618019 
	C30.403032,125.615929 32.877728,124.960510 34.161739,125.327393 
	C40.235645,127.062897 46.138683,129.403931 52.226963,131.076538 
	C53.803017,131.509537 56.357250,130.875626 57.557381,129.759186 
	C63.278599,124.436913 68.529495,118.606377 74.290253,113.330704 
	C76.440292,111.361725 76.614243,109.793571 75.748055,107.333000 
	C73.377022,100.597610 71.194801,93.795761 68.666039,86.204346 
	C77.533638,81.056740 86.383598,75.919373 95.572495,70.585251 
	C100.561073,76.182869 105.305664,81.284012 109.773964,86.616653 
	C111.933838,89.194336 113.766151,90.035255 117.285271,88.794464 
	C123.852524,86.478951 130.653473,84.681252 137.487946,83.328926 
	C140.978302,82.638283 142.591873,81.491837 143.162766,77.878624 
	C144.225998,71.149307 145.846649,64.508064 147.370346,57.180656 
	C157.585129,57.180656 167.812332,57.180656 178.589722,57.180656 
	C180.054520,64.191689 181.713669,71.101685 182.866669,78.095116 
	C183.427307,81.495461 184.901718,82.602104 188.219482,83.277290 
	C195.211258,84.700180 202.144333,86.589073 208.914078,88.848373 
	C212.156509,89.930481 213.935822,89.400444 216.040009,86.846916 
	C220.470901,81.469849 225.260696,76.388535 230.373398,70.658905 
	C239.410553,75.856590 248.276459,80.955780 257.318176,86.156090 
	C255.033966,93.098717 253.298279,99.526566 250.779114,105.631096 
	C249.062057,109.791946 249.751450,112.431305 253.436325,114.738922 
	C255.110352,115.787262 256.514099,117.267212 258.463776,118.961700 
	C260.734070,121.254150 262.581024,123.136269 264.428009,125.018387 
	C270.282928,132.437088 270.281342,132.432388 279.258881,129.425964 
	C281.939636,128.528244 284.635834,127.676865 287.318024,126.783417 
	C295.020569,124.217659 295.151489,124.133606 299.234558,130.899811 
	C302.668152,136.589706 305.662262,142.543304 309.022644,148.279602 
	C310.389648,150.613190 309.933990,152.035980 307.935944,153.718643 
	C303.225250,157.685791 298.796051,161.987442 294.080353,165.948273 
	C291.997375,167.697830 291.578705,169.212296 292.417267,171.908768 
	C294.684662,179.200058 296.611725,186.608063 298.363586,194.042862 
	C298.977234,196.647141 299.836761,197.954544 302.690704,198.399918 
	C308.766266,199.348068 314.808929,200.620392 320.761566,202.160080 
	C322.192749,202.530258 324.223816,204.426590 324.270172,205.684036 
	C324.582245,214.152786 324.582397,222.643845 324.276367,231.112991 
	C324.229919,232.398163 322.261810,234.360016 320.852783,234.720795 
	C314.735107,236.287231 308.451752,237.205566 302.332031,238.765335 
	C300.892517,239.132217 299.187531,240.875366 298.745148,242.331787 
	C296.428284,249.959854 294.318787,257.662628 292.531250,265.430115 
	C292.159698,267.044678 292.895813,269.615662 294.076416,270.764526 
	C299.196533,275.746887 304.670410,280.365753 310.938538,285.937073 
	C305.982513,294.214783 301.071472,302.603760 295.874451,310.811646 
	C295.350128,311.639771 292.945679,311.895996 291.673004,311.525940 
	C285.768433,309.809082 279.901184,307.924103 274.134247,305.791901 
	C271.582275,304.848389 270.114166,305.119080 268.173340,307.237610 
	C263.009918,312.873871 257.618683,318.335693 251.945465,323.453827 
	C249.654327,325.520782 249.365417,327.184784 250.302567,329.833038 
	C252.677307,336.543732 254.847870,343.326660 257.301086,350.683044 
	C248.390610,355.859680 239.648361,360.938629 230.369614,366.329224 
	C225.259109,360.571320 220.211411,355.118713 215.464111,349.416046 
	C213.652496,347.239868 212.150375,347.061859 209.534088,347.876678 
	C202.242340,350.147705 194.857910,352.177826 187.410477,353.862854 
	C184.661743,354.484863 183.500488,355.557678 183.011490,358.241791 
	C181.731232,365.269012 180.194092,372.249420 178.700745,379.534302 
	C176.860916,379.785248 175.094818,380.026154 173.164368,380.633514 
	C165.979050,381.000000 158.958099,381.000000 151.328369,380.641724 
	C148.315308,380.110474 147.024918,379.125580 146.592010,376.448303 
	C145.610718,370.379730 144.085587,364.401001 142.999451,358.346680 
	C142.528488,355.721405 141.515121,354.501923 138.698013,353.877075 
	C131.411301,352.260803 124.160095,350.357788 117.071938,348.029694 
	C113.828644,346.964447 112.051796,347.483887 109.949600,350.059265 
	C105.546417,355.453552 100.766891,360.540680 95.550224,366.420898 
	C87.225227,361.437103 78.961960,356.595337 70.864754,351.490143 
	C69.997673,350.943481 69.504700,348.685699 69.849564,347.521210 
	C71.689384,341.308777 74.022934,335.239838 75.772537,329.005341 
	C76.177177,327.563477 75.473930,325.191437 74.413246,324.061584 
	C68.956635,318.249268 63.328278,312.582672 57.484638,307.161926 
	C56.292084,306.055664 53.727718,305.500793 52.126114,305.928619 
	C46.193676,307.513275 40.359451,309.503662 34.572361,311.576233 
	C32.144150,312.445862 30.596334,312.252563 29.252470,309.861511 
	C25.265932,302.768585 21.207859,295.712555 17.006392,288.745453 
	C15.442792,286.152618 16.244318,284.663086 18.330181,282.917816 
	C23.051104,278.967773 27.711143,274.922668 32.102909,270.617310 
	C33.200947,269.540833 33.916054,267.159882 33.564854,265.671661 
	C31.697010,257.756653 29.539066,249.903427 27.206984,242.110992 
	C26.806572,240.773056 25.247602,239.132278 23.941130,238.822098 
	C16.340864,237.017700 8.656162,235.568954 1.000000,234.000000 
	C1.000000,223.979111 1.000000,213.958206 1.000001,203.468658 
M236.621109,287.876770 
	C258.352600,264.062042 267.234833,236.169037 263.143524,204.178177 
	C256.102722,149.124283 201.588837,108.938805 146.930115,118.492790 
	C93.774330,127.784065 57.940697,173.499268 62.203140,227.270828 
	C64.064392,250.750885 73.262054,271.264099 90.217133,288.780548 
	C113.840378,312.403473 142.311707,322.732513 175.472458,318.826538 
	C199.224777,316.028778 219.614792,305.868530 236.621109,287.876770 
z"/>
<path fill="#FEFEFE" opacity="1.000000" stroke="none" 
	d="
M1.000000,234.468658 
	C8.656162,235.568954 16.340864,237.017700 23.941130,238.822098 
	C25.247602,239.132278 26.806572,240.773056 27.206984,242.110992 
	C29.539066,249.903427 31.697010,257.756653 33.564854,265.671661 
	C33.916054,267.159882 33.200947,269.540833 32.102909,270.617310 
	C27.711143,274.922668 23.051104,278.967773 18.330181,282.917816 
	C16.244318,284.663086 15.442792,286.152618 17.006392,288.745453 
	C21.207859,295.712555 25.265932,302.768585 29.252470,309.861511 
	C30.596334,312.252563 32.144150,312.445862 34.572361,311.576233 
	C40.359451,309.503662 46.193676,307.513275 52.126114,305.928619 
	C53.727718,305.500793 56.292084,306.055664 57.484638,307.161926 
	C63.328278,312.582672 68.956635,318.249268 74.413246,324.061584 
	C75.473930,325.191437 76.177177,327.563477 75.772537,329.005341 
	C74.022934,335.239838 71.689384,341.308777 69.849564,347.521210 
	C69.504700,348.685699 69.997673,350.943481 70.864754,351.490143 
	C78.961960,356.595337 87.225227,361.437103 95.550224,366.420898 
	C100.766891,360.540680 105.546417,355.453552 109.949600,350.059265 
	C112.051796,347.483887 113.828644,346.964447 117.071938,348.029694 
	C124.160095,350.357788 131.411301,352.260803 138.698013,353.877075 
	C141.515121,354.501923 142.528488,355.721405 142.999451,358.346680 
	C144.085587,364.401001 145.610718,370.379730 146.592010,376.448303 
	C147.024918,379.125580 148.315308,380.110474 150.859787,380.641724 
	C101.073738,381.000000 51.147472,381.000000 1.000000,381.000000 
	C1.000000,332.312653 1.000000,283.625000 1.000000,234.468658 
z"/>
<path fill="#DAA622" opacity="1.000000" stroke="none" 
	d="
M264.821411,124.893524 
	C262.581024,123.136269 260.734070,121.254150 258.803009,119.086975 
	C261.379639,109.023415 263.877106,99.195534 266.810089,89.499397 
	C267.592224,86.913734 269.344513,84.373535 271.268738,82.420738 
	C286.103455,67.365753 301.088654,52.459023 316.038635,37.517780 
	C316.379639,37.176994 316.855316,36.971020 316.869232,36.961975 
	C326.696686,46.768440 336.416534,56.467548 346.386078,66.415810 
	C338.829224,73.994987 330.869568,81.988586 322.897858,89.970184 
	C316.194000,96.682343 309.771301,103.717979 302.646393,109.949890 
	C298.785675,113.326752 293.969666,116.009537 289.136353,117.785660 
	C281.357574,120.644196 273.207825,122.493172 264.821411,124.893524 
M283.352509,95.081657 
	C282.156097,93.091553 280.959656,91.101440 279.763245,89.111336 
	C278.916992,89.579216 278.070709,90.047104 277.224457,90.514992 
	C275.197052,97.493057 273.169647,104.471130 270.827026,112.534081 
	C278.926758,110.140167 286.004242,108.048378 294.485931,105.541573 
	C290.116791,101.445923 286.991241,98.516006 283.352509,95.081657 
z"/>
<path fill="#DBA624" opacity="1.000000" stroke="none" 
	d="
M363.635071,26.427040 
	C370.503113,34.668274 370.249084,42.400997 363.199219,49.800396 
	C360.450165,52.685730 357.813416,55.678066 355.421692,58.297337 
	C345.165497,47.993851 335.472076,38.255772 325.651764,28.390188 
	C328.813263,25.150103 332.193207,21.023718 336.234985,17.702864 
	C341.950012,13.007252 350.194641,13.688856 355.916351,18.816780 
	C358.515045,21.145767 360.900787,23.712358 363.635071,26.427040 
z"/>
<path fill="#FEFEFD" opacity="1.000000" stroke="none" 
	d="
M89.932289,288.189575 
	C73.262054,271.264099 64.064392,250.750885 62.203140,227.270828 
	C57.940697,173.499268 93.774330,127.784065 146.930115,118.492790 
	C201.588837,108.938805 256.102722,149.124283 263.143524,204.178177 
	C267.234833,236.169037 258.352600,264.062042 236.071854,287.763123 
	C226.183212,269.712311 211.960693,257.318207 192.339874,252.456833 
	C174.044205,247.923782 155.175980,248.292236 136.794189,251.746429 
	C115.330711,255.779709 100.184929,269.131042 89.932289,288.189575 
M118.931747,168.596832 
	C118.279488,173.688019 117.016579,178.787140 117.082573,183.868988 
	C117.343216,203.939560 131.356216,221.598785 150.674438,226.817322 
	C170.530441,232.181137 191.650970,223.825150 202.257935,206.409149 
	C212.838989,189.035721 210.788147,166.551239 197.260895,151.624161 
	C173.364365,125.254707 132.137955,133.802750 118.931747,168.596832 
z"/>
<path fill="#DAA520" opacity="1.000000" stroke="none" 
	d="
M90.074707,288.485046 
	C100.184929,269.131042 115.330711,255.779709 136.794189,251.746429 
	C155.175980,248.292236 174.044205,247.923782 192.339874,252.456833 
	C211.960693,257.318207 226.183212,269.712311 235.758636,287.903931 
	C219.614792,305.868530 199.224777,316.028778 175.472458,318.826538 
	C142.311707,322.732513 113.840378,312.403473 90.074707,288.485046 
z"/>
<path fill="#FDFBF5" opacity="1.000000" stroke="none" 
	d="
M283.609100,95.333878 
	C286.991241,98.516006 290.116791,101.445923 294.485931,105.541573 
	C286.004242,108.048378 278.926758,110.140167 270.827026,112.534081 
	C273.169647,104.471130 275.197052,97.493057 277.224457,90.514992 
	C278.070709,90.047104 278.916992,89.579216 279.763245,89.111336 
	C280.959656,91.101440 282.156097,93.091553 283.609100,95.333878 
z"/>
<path fill="#DAA521" opacity="1.000000" stroke="none" 
	d="
M119.033661,168.209900 
	C132.137955,133.802750 173.364365,125.254707 197.260895,151.624161 
	C210.788147,166.551239 212.838989,189.035721 202.257935,206.409149 
	C191.650970,223.825150 170.530441,232.181137 150.674438,226.817322 
	C131.356216,221.598785 117.343216,203.939560 117.082573,183.868988 
	C117.016579,178.787140 118.279488,173.688019 119.033661,168.209900 
z"/>
</svg>